<svg xmlns="http://www.w3.org/2000/svg" viewBox="0 0 785.64 423.83"><defs><style>.cls-1{fill:none;stroke:#f0f;stroke-width:0.27px;}.cls-2{fill:#2c299b;}.cls-3{fill:#85b7e5;}.cls-4{fill:#807fc3;}.cls-5{fill:#e2eef9;}.cls-6{fill:#61a5e3;}.cls-7{fill:#c0eeef;}.cls-8{fill:#f97d91;}.cls-9{fill:#e6f8f9;}.cls-10{fill:#ff506e;}.cls-11{fill:#ff687d;}</style></defs><title>Asset 1</title><g id="Layer_2" data-name="Layer 2"><g id="logo"><path class="cls-1" d="M222.57,241.68"/><polygon class="cls-2" points="180.51 321.62 112.93 360.79 180.51 399.26 180.51 321.62"/><polygon class="cls-3" points="0 302.92 0 293.22 107.34 354.33 107.34 364.04 0 302.92"/><polygon class="cls-3" points="0 277.04 0 267.33 107.34 328.45 107.34 338.15 0 277.04"/><polygon class="cls-4" points="180.51 286.01 107.34 328.45 107.34 338.15 188.73 290.95 188.73 203.47 180.51 208.24 180.51 286.01"/><polygon class="cls-4" points="203.16 192.06 211.38 187.29 211.38 266.16 284.15 223.94 284.15 233.65 203.16 280.51 203.16 192.06"/><polygon class="cls-4" points="188.73 394.49 180.51 399.26 180.51 321.58 107.34 364.04 107.34 354.33 188.73 307.23 188.73 394.49"/><polygon class="cls-2" points="73.17 147.12 73.17 224.89 180.51 286.01 180.51 208.24 73.17 147.12"/><polygon class="cls-5" points="73.17 224.89 0 267.33 107.34 328.45 180.51 286.01 73.17 224.89"/><polygon class="cls-5" points="176.82 162.83 172.65 165.24 211.38 187.29 211.38 266.16 284.15 223.94 176.82 162.83"/><polygon class="cls-6" points="174.57 299.16 107.34 338.15 14.08 285.05 0 293.22 107.34 354.33 188.73 307.23 174.57 299.16"/><polygon class="cls-7" points="104.04 126.17 95.82 130.94 203.16 192.06 211.38 187.29 104.04 126.17"/><polygon class="cls-7" points="81.39 142.35 73.17 147.12 180.51 208.24 188.73 203.47 81.39 142.35"/><polygon class="cls-3" points="95.82 130.94 95.82 150.57 188.73 203.47 188.73 272.29 203.16 280.51 203.16 192.06 95.82 130.94"/><polygon class="cls-3" points="46.85 285.33 72.64 300.01 89.1 290.46 63.31 275.78 46.85 285.33"/><polygon class="cls-3" points="126 308.24 33.36 255.49 69.09 234.76 69.09 234.76 161.74 287.51 126 308.24"/><polygon class="cls-3" points="211.38 208.87 220.56 214.14 237.03 204.59 211.38 189.95 211.38 208.87"/><polygon class="cls-3" points="211.38 213.83 246.21 233.65 211.38 253.85 211.38 213.83"/><polygon class="cls-8" points="100.83 316.04 106.75 319.41 109.97 317.54 104.02 314.15 100.83 316.04"/><line class="cls-7" x1="398.51" y1="318" x2="395.49" y2="319.74"/><rect class="cls-9" x="379.21" y="228.05" width="5.42" height="9.17" transform="translate(-10.52 447.07) rotate(-60)"/><polygon class="cls-9" points="593.97 104.19 591.34 109 599.21 113.61 601.91 108.93 593.97 104.19"/><rect class="cls-9" x="747.51" y="15.71" width="5.42" height="9.17" transform="translate(357.52 659.85) rotate(-60)"/><polyline class="cls-10" points="686.96 173.59 686.96 160.94 679.01 156.35 679.01 169 686.96 173.59"/><polygon class="cls-8" points="679.01 156.35 686.96 160.94 697.92 154.61 689.97 150.02 679.01 156.35"/><polygon class="cls-11" points="686.96 160.94 686.96 173.59 697.92 167.26 697.92 154.61 686.96 160.94"/><polygon class="cls-4" points="211.38 304.09 284.55 261.66 284.55 251.95 203.16 299.16 203.16 387.6 211.38 382.83 211.38 304.09"/><polyline class="cls-3" points="203.16 387.6 188.73 379.39 188.73 379.39 188.73 307.24 174.57 299.18 188.73 290.96 188.73 290.94 188.73 290.94 203.16 299.16 203.16 387.6"/><polygon class="cls-6" points="203.16 280.52 188.73 272.31 188.73 290.94 203.16 299.16 284.55 251.95 268.42 242.76 203.16 280.52"/><polyline class="cls-7" points="253.03 310.08 285.9 291.1 277.96 286.51 245.08 305.49"/><polyline class="cls-7" points="263.99 404.84 285.9 392.19 277.96 387.6 266.26 394.36"/><polygon class="cls-7" points="288.92 280.18 296.86 284.77 324.2 268.99 316.25 264.4 288.92 280.18"/><polygon class="cls-7" points="332.75 254.88 340.7 259.46 370.74 242.12 362.8 237.53 332.75 254.88"/><polygon class="cls-7" points="379.3 228 387.24 232.59 414.58 216.81 406.63 212.22 379.3 228"/><polygon class="cls-7" points="486.05 166.37 494 170.95 504.96 164.63 497.01 160.04 486.05 166.37"/><polygon class="cls-7" points="464.26 178.95 472.2 183.54 483.16 177.21 475.22 172.62 464.26 178.95"/><polygon class="cls-7" points="610.25 196.05 610.25 205.23 621.21 198.9 613.26 194.31 610.25 196.05"/><polygon class="cls-7" points="763.75 107.41 763.75 116.58 774.75 110.25 766.81 105.66 763.75 107.41"/><polygon class="cls-7" points="526.88 199.93 526.88 209.1 537.84 202.77 529.89 198.19 526.88 199.93"/><polygon class="cls-7" points="439.33 294.44 439.33 303.61 450.29 297.28 442.34 292.7 439.33 294.44"/><polygon class="cls-7" points="461.25 281.78 461.25 290.96 472.2 284.63 464.26 280.04 461.25 281.78"/><polygon class="cls-7" points="307.82 370.36 307.82 379.54 318.78 373.21 310.83 368.62 307.82 370.36"/><polygon class="cls-7" points="395.49 319.74 395.49 328.92 406.45 322.59 398.5 318 395.49 319.74"/><polygon class="cls-7" points="351.66 301.09 351.66 310.26 362.62 303.94 354.67 299.35 351.66 301.09"/><polygon class="cls-7" points="526.88 243.89 526.88 253.06 548.79 240.41 540.85 235.82 526.88 243.89"/><polygon class="cls-7" points="701.05 143.62 709 148.21 730.92 135.56 722.97 130.97 701.05 143.62"/><polygon class="cls-7" points="744.89 105.66 752.84 110.25 763.79 103.92 755.85 99.33 744.89 105.66"/><polygon class="cls-7" points="442.34 191.6 450.29 196.19 461.25 189.86 453.3 185.28 442.34 191.6"/><polygon class="cls-7" points="420.42 204.26 428.37 208.84 439.33 202.52 431.38 197.93 420.42 204.26"/><polygon class="cls-7" points="507.97 153.71 515.92 158.3 548.79 139.32 540.85 134.73 507.97 153.71"/><polygon class="cls-7" points="547.51 131.18 555.45 135.77 588.33 116.79 580.38 112.2 547.51 131.18"/><polygon class="cls-7" points="593.97 104.19 601.91 108.93 629.18 93.19 621.29 88.51 593.97 104.19"/><polygon class="cls-7" points="635.18 80.57 643.12 85.15 670.46 69.37 662.51 64.78 635.18 80.57"/><polygon class="cls-7" points="722.97 29.88 730.92 34.47 741.88 28.14 733.93 23.55 722.97 29.88"/><polygon class="cls-7" points="763.73 63.54 763.73 72.71 782.77 61.72 774.82 57.13 763.73 63.54"/><polygon class="cls-7" points="747.6 15.66 755.54 20.25 782.77 4.59 774.82 0 747.6 15.66"/><path class="cls-2" d="M285.9,392.19l-.07,12.7L253,423.83V411.2l21.92-101.12L253,322.73V310.08l32.88-19L285.83,304,264,404.89Z"/><path class="cls-2" d="M329.73,272l-.06,101.3-5.53,9.43-27.27,15.75V284.77L324.2,269ZM318.78,373.21V284.77l-10.93,6.31,0,88.45Z"/><path class="cls-2" d="M373.45,295.14l-5.53,9.58,5.53,3,.1,46.47-10.93,6.31-.1-46.47-10.93,6.31v46.78l-10.89,6V259.46l30-17.35,2.83,1.49Zm-10.84-35.68-10.93,6.31,0,44.49,11-6.33Z"/><path class="cls-2" d="M417.4,218.3l-.24,107.64-2.83,4.75L387.15,346l-2.7-1.56.09-107.11,2.71-4.69,27.34-15.78Zm-11,15.86-10.93,6.31,0,88.45,10.93-6.31Z"/><path class="cls-2" d="M483.16,177.21V285l-5.89,9.36L458.1,305.42l-2.7-1.56-2.7,4.68-18.93,10.91-5.41-3.12V208.85l11-6.33V303.61l11-6.33V196.19l11-6.33V291l11-6.33V183.54Z"/><path class="cls-2" d="M504.51,278.64l-10.67,6.06L494,171l11-6.33Z"/><path class="cls-2" d="M548.79,240.41l-.07,12.7L515.92,272V158.3l32.88-19v12.63l-21.92,13.26V209.1l11-6.33V215.4l-11,6.43v31.23Z"/><path class="cls-2" d="M588.33,116.79v12.63l-10.93,6.31V236.59l-11,6.48,0-101-11,6.35V135.77Z"/><path class="cls-2" d="M632,94.68V201.92l-2.83,4.75-27.27,15.75-2.7-1.56V113.61l2.7-4.68,27.27-15.75Zm-10.93,15.82-10.93,6.31V205l10.93-6.31Z"/><path class="cls-2" d="M738.94,143.45l-30,17.31V148.13l22-12.57V34.46l11-6.33-.11,110.56Z"/><path class="cls-2" d="M774.75,49.77v-28l-11.08,6.37,0,44.53,19-11,2.83,1.64,0,50.09-2.83,4.75L755.51,134l-2.7-1.56,0-22.2,10.93-6.31,0,12.64,11-6.33V78.94L755.54,90l-2.7-1.56V24.94l2.71-4.69L782.77,4.59l2.87,1.6,0,37.39Z"/><path class="cls-2" d="M643.07,85.13l27.27-15.75,5.53,3L675.93,180,665,186.24V85.15l-11,6.39.06,101-10.93,6.31Z"/><polygon class="cls-3" points="332.75 368.62 332.75 254.88 340.7 259.46 340.7 373.21 332.75 368.62"/><polyline class="cls-3" points="428.37 316.34 428.37 208.84 420.42 204.26 420.42 311.75 428.37 316.34"/><polyline class="cls-3" points="384.45 344.4 384.53 237.28 376.59 232.69 376.5 339.81 384.45 344.4"/><polyline class="cls-3" points="442.34 292.7 442.34 191.6 450.29 196.19 450.29 297.28"/><polyline class="cls-3" points="398.5 318 398.5 238.74 406.45 234.15 406.45 322.59"/><polyline class="cls-3" points="354.67 299.35 354.67 264.05 362.62 259.46 362.62 303.94"/><polyline class="cls-3" points="362.62 360.56 362.52 314.08 354.57 318.67 354.67 355.97 362.62 360.56"/><polyline class="cls-3" points="310.83 368.62 310.83 289.36 318.78 284.77 318.78 373.21"/><polyline class="cls-3" points="296.86 398.52 296.86 284.77 288.92 280.18 288.92 393.93 296.86 398.52"/><polyline class="cls-3" points="253.03 322.73 253.03 310.08 245.08 305.49 245.08 318.15 253.03 322.73"/><polyline class="cls-3" points="253.03 423.83 253.03 411.17 245.08 406.58 245.08 419.24 253.03 423.83"/><polygon class="cls-3" points="253.03 411.17 274.94 310.08 264.73 315.98 245.08 406.58 253.03 411.17"/><polyline class="cls-3" points="464.26 280.04 464.26 178.95 472.2 183.54 472.2 284.63"/><polyline class="cls-3" points="493.83 284.69 493.83 170.95 486.05 166.37 486.05 280.11 493.83 284.69"/><polyline class="cls-3" points="515.92 272.05 515.92 158.3 507.97 153.71 507.97 267.46 515.92 272.05"/><polyline class="cls-3" points="566.41 243.19 566.41 142.1 558.47 146.68 558.47 238.6 566.38 243.08"/><polyline class="cls-3" points="599.29 221.08 599.21 113.61 591.34 109 591.34 216.49 599.21 220.86"/><polyline class="cls-3" points="643.12 198.9 643.12 85.15 635.18 80.57 635.18 194.31 643.12 198.9"/><polyline class="cls-3" points="665.04 186.25 665.04 85.15 657.1 89.74 657.1 181.66 665.04 186.25"/><polyline class="cls-3" points="613.26 194.31 613.26 115.05 621.21 110.46 621.21 198.9"/><polyline class="cls-3" points="722.97 130.97 722.97 29.88 730.92 34.47 730.92 135.56"/><polyline class="cls-3" points="752.84 88.47 752.84 24.94 744.89 20.35 744.89 83.88 752.84 88.47"/><polyline class="cls-3" points="774.75 49.77 774.75 21.81 766.81 26.4 766.81 45.19 774.75 49.77"/><polyline class="cls-3" points="766.81 105.66 766.81 83.53 774.75 78.94 774.75 110.25"/><polygon class="cls-3" points="744.89 127.84 744.89 105.66 752.84 110.25 752.84 132.43 744.89 127.84"/><polyline class="cls-3" points="709 160.87 709 148.21 701.05 143.62 701.05 156.28 708.96 160.75"/><polygon class="cls-3" points="548.79 139.32 547.5 138.57 547.5 131.2 555.45 135.79 555.45 148.44 548.79 144.59 548.79 139.32"/></g></g></svg>